<svg xmlns="http://www.w3.org/2000/svg" xmlns:xlink="http://www.w3.org/1999/xlink" width="104.167" height="100" viewBox="0 0 104.167 100">
  <defs>
    <clipPath id="clip-path">
      <rect id="Rectangle_30" data-name="Rectangle 30" width="104.167" height="100" fill="none"/>
    </clipPath>
  </defs>
  <g id="Group_16" data-name="Group 16" transform="translate(0.328 -7)">
    <g id="Mask_Group_9" data-name="Mask Group 9" transform="translate(-0.328 7)" clip-path="url(#clip-path)">
      <g id="Layer_2" data-name="Layer 2" transform="translate(0 0.496)">
        <g id="Layer_1" data-name="Layer 1" transform="translate(0)">
          <path id="Path_32" data-name="Path 32" d="M96.336,0H7.9A8.074,8.074,0,0,0,2.317,2.171,7.28,7.28,0,0,0,0,7.463V73.7A7.273,7.273,0,0,0,2.276,79.06,8.071,8.071,0,0,0,7.9,81.269H40.451v7.969H38.225A8.519,8.519,0,0,0,29.5,97.531a1.526,1.526,0,0,0,1.571,1.476h42.11a1.526,1.526,0,0,0,1.563-1.476,8.519,8.519,0,0,0-8.729-8.293H63.723V81.269H96.309a8.069,8.069,0,0,0,5.58-2.21,7.274,7.274,0,0,0,2.276-5.32V7.463A7.666,7.666,0,0,0,96.335,0ZM3.16,7.463A4.645,4.645,0,0,1,7.9,2.985H96.336a4.636,4.636,0,0,1,4.731,4.478V66.972H3.16ZM71.37,96.005h-38.5a5.585,5.585,0,0,1,5.36-3.781H66a5.586,5.586,0,0,1,5.368,3.781ZM60.607,89.2H43.646V81.269H60.607Zm40.46-15.5a4.648,4.648,0,0,1-4.731,4.544H7.9A4.649,4.649,0,0,1,3.16,73.7v-3.74h97.907Z" transform="translate(0.001 0)" fill="#cc1b2b"/>
          <path id="Path_33" data-name="Path 33" d="M54.081,25.259,47.254,24.23a1.2,1.2,0,0,0-.157-.348l4.05-5.3a1.472,1.472,0,0,0,0-1.783,24.884,24.884,0,0,0-5.578-5.3,1.657,1.657,0,0,0-1.851,0l-5.552,3.873-.4-.133-1.074-6.5A1.618,1.618,0,0,0,35.4,7.5a25.583,25.583,0,0,0-7.856,0,1.593,1.593,0,0,0-1.309,1.244l-1.082,6.5c-.14.05-.279.083-.4.133l-5.578-3.831a1.657,1.657,0,0,0-1.851,0,24.875,24.875,0,0,0-5.552,5.3,1.472,1.472,0,0,0,0,1.783l4.059,5.3a1.013,1.013,0,0,0-.166.348l-6.844.987a1.548,1.548,0,0,0-1.283,1.252,19.635,19.635,0,0,0-.332,3.74,20.061,20.061,0,0,0,.332,3.74,1.5,1.5,0,0,0,1.283,1.2l6.826,1.061a3.607,3.607,0,0,0,.166.357l-4.059,5.3a1.409,1.409,0,0,0,0,1.741,23.008,23.008,0,0,0,5.552,5.3,1.583,1.583,0,0,0,1.851,0l5.578-3.831.4.133,1.082,6.46a1.6,1.6,0,0,0,1.309,1.294,29.113,29.113,0,0,0,3.937.265,29.7,29.7,0,0,0,3.937-.265,1.622,1.622,0,0,0,1.292-1.294l1.074-6.46a1.684,1.684,0,0,0,.4-.174l5.578,3.873a1.583,1.583,0,0,0,1.851,0,23.477,23.477,0,0,0,5.552-5.3,1.409,1.409,0,0,0,0-1.741l-4.05-5.3c.07-.133.113-.265.157-.357l6.8-1.061a1.5,1.5,0,0,0,1.318-1.2,20.793,20.793,0,0,0,.323-3.74,20.352,20.352,0,0,0-.323-3.74,1.583,1.583,0,0,0-1.292-1.252Zm-1.659,7.173-6.573.979a1.566,1.566,0,0,0-1.24,1.028,9.792,9.792,0,0,1-.751,1.659,1.526,1.526,0,0,0,.148,1.609l3.884,5.075A20.916,20.916,0,0,1,44.636,45.9l-5.368-3.748a1.651,1.651,0,0,0-1.641-.083,12.829,12.829,0,0,1-1.746.663,1.686,1.686,0,0,0-1.082,1.2l-1.03,6.236a20.475,20.475,0,0,1-4.618,0l-1.039-6.253a1.685,1.685,0,0,0-1.074-1.2,10.8,10.8,0,0,1-1.746-.663,1.66,1.66,0,0,0-1.641.083l-5.4,3.748a20.043,20.043,0,0,1-3.23-3.118l3.893-5.075a1.588,1.588,0,0,0,.14-1.609,10.406,10.406,0,0,1-.751-1.659,1.566,1.566,0,0,0-1.248-1.028L10.5,32.415a16.6,16.6,0,0,1-.113-2.181,16.355,16.355,0,0,1,.113-2.189l6.547-.979a1.645,1.645,0,0,0,1.248-1.02,13.032,13.032,0,0,1,.751-1.659,1.47,1.47,0,0,0-.14-1.559l-3.884-5.141a19.091,19.091,0,0,1,3.23-3.06l5.386,3.7a1.52,1.52,0,0,0,1.615.133,18.56,18.56,0,0,1,1.789-.713,1.541,1.541,0,0,0,1.074-1.211l1.03-6.195a20.474,20.474,0,0,1,4.618,0l1.03,6.195a1.543,1.543,0,0,0,1.082,1.2,16.8,16.8,0,0,1,1.746.713,1.52,1.52,0,0,0,1.615-.133l5.4-3.69A19.884,19.884,0,0,1,47.892,17.7L44.007,22.82a1.448,1.448,0,0,0-.183,1.551,10.245,10.245,0,0,1,.751,1.659,1.645,1.645,0,0,0,1.274,1.037l6.573.979a18.524,18.524,0,0,1,.131,2.206,18.918,18.918,0,0,1-.131,2.181Z" transform="translate(0.696 0.3)" fill="#cc1b2b"/>
          <path id="Path_34" data-name="Path 34" d="M29.992,22.482a7.525,7.525,0,0,0-6.961,4.379,6.873,6.873,0,0,0,1.6,7.783,7.8,7.8,0,0,0,8.185,1.561,7.139,7.139,0,0,0,4.642-6.592,7.325,7.325,0,0,0-7.472-7.132Zm0,11.27a4.152,4.152,0,1,1,4.365-4.146,4.26,4.26,0,0,1-4.365,4.146Z" transform="translate(2.167 0.937)" fill="#cc1b2b"/>
          <path id="Path_35" data-name="Path 35" d="M87.015,39.017l-4.26-.622,2.523-3.317a1.472,1.472,0,0,0,0-1.783,17.788,17.788,0,0,0-3.954-3.79,1.75,1.75,0,0,0-1.859,0l-3.492,2.413-.672-4a1.566,1.566,0,0,0-1.292-1.244,19.588,19.588,0,0,0-5.657,0,1.566,1.566,0,0,0-1.283,1.244l-.681,4.022L62.9,29.53a1.731,1.731,0,0,0-1.851,0,17.728,17.728,0,0,0-3.981,3.79,1.472,1.472,0,0,0,0,1.783l2.523,3.317-4.234.622a1.559,1.559,0,0,0-1.318,1.252,15.248,15.248,0,0,0,0,5.341,1.552,1.552,0,0,0,1.318,1.244l4.234.63-2.523,3.317a1.472,1.472,0,0,0,0,1.783,15.89,15.89,0,0,0,3.981,3.781,1.583,1.583,0,0,0,1.851,0l3.492-2.4.681,4.055a1.591,1.591,0,0,0,1.283,1.244,17.97,17.97,0,0,0,5.657,0A1.584,1.584,0,0,0,75.3,58.041l.69-4.1,3.492,2.4a1.6,1.6,0,0,0,1.859,0A15.924,15.924,0,0,0,85.3,52.559a1.472,1.472,0,0,0,0-1.783L82.79,47.459l4.242-.63a1.586,1.586,0,0,0,1.318-1.244,18.471,18.471,0,0,0,.227-2.67,18.274,18.274,0,0,0-.227-2.67A1.6,1.6,0,0,0,87.015,39.017ZM85.357,44.1l-4.225.614a1.509,1.509,0,0,0-1.24.987,10.931,10.931,0,0,1-.5,1.153,1.376,1.376,0,0,0,.148,1.518l2.505,3.317c-.515.539-1.082,1.07-1.693,1.6l-3.439-2.4a1.825,1.825,0,0,0-1.641-.133,5.385,5.385,0,0,1-1.17.481A1.519,1.519,0,0,0,73.049,52.4l-.681,4.005a10.26,10.26,0,0,1-2.366,0L69.321,52.4a1.535,1.535,0,0,0-1.056-1.161,4.927,4.927,0,0,1-1.17-.481,1.77,1.77,0,0,0-1.641.133l-3.492,2.4c-.611-.531-1.17-1.061-1.685-1.6l2.505-3.317a1.447,1.447,0,0,0,.14-1.559,4.713,4.713,0,0,1-.489-1.111,1.555,1.555,0,0,0-1.266-.987l-4.2-.614c0-.406-.044-.829-.044-1.161a11.005,11.005,0,0,1,.044-1.161l4.242-.589a1.547,1.547,0,0,0,1.266-.979,5.647,5.647,0,0,1,.489-1.12,1.447,1.447,0,0,0-.14-1.559l-2.505-3.317a18.764,18.764,0,0,1,1.7-1.609l3.492,2.4a1.724,1.724,0,0,0,1.615.133,10.145,10.145,0,0,1,1.2-.489,1.519,1.519,0,0,0,1.056-1.161l.681-4.005a22.51,22.51,0,0,1,2.366,0l.681,4.005a1.5,1.5,0,0,0,1.056,1.161,11.922,11.922,0,0,1,1.17.489,1.77,1.77,0,0,0,1.641-.133l3.378-2.4a18.848,18.848,0,0,1,1.693,1.6l-2.505,3.317a1.439,1.439,0,0,0-.148,1.559,7.363,7.363,0,0,1,.5,1.12,1.492,1.492,0,0,0,1.24.987l4.225.622v1.161c0,.332.017.7,0,1.128Z" transform="translate(5.192 1.103)" fill="#cc1b2b"/>
          <path id="Path_36" data-name="Path 36" d="M70.15,37.059a5.741,5.741,0,0,0-5.315,3.335,5.242,5.242,0,0,0,1.219,5.94A5.947,5.947,0,0,0,72.3,47.528,5.446,5.446,0,0,0,75.842,42.5a5.587,5.587,0,0,0-5.692-5.44Zm0,7.845a2.408,2.408,0,1,1,2.558-2.4,2.339,2.339,0,0,1-.751,1.707,2.594,2.594,0,0,1-1.806.69Z" transform="translate(6.214 1.544)" fill="#cc1b2b"/>
        </g>
      </g>
    </g>
  </g>
</svg>
