<svg id="Layer_2" data-name="Layer 2" xmlns="http://www.w3.org/2000/svg" width="95" height="98.3" viewBox="0 0 95 98.3">
  <g id="Layer_1" data-name="Layer 1" transform="translate(0 0)">
    <path id="Path_73" data-name="Path 73" d="M87.83,0H7.2A7.317,7.317,0,0,0,0,7.43V73.18a7.359,7.359,0,0,0,7.2,7.48h29.7v7.91H34.846a8.135,8.135,0,0,0-7.972,8.27,1.454,1.454,0,0,0,1.449,1.46H66.677a1.464,1.464,0,0,0,1.459-1.46,8.154,8.154,0,0,0-7.992-8.27H58.115V80.66H87.83A7.34,7.34,0,0,0,95,73.18V7.43A7.309,7.309,0,0,0,87.83,0ZM7.2,3H87.83a4.416,4.416,0,0,1,4.31,4.46v9.86L85.2,28.08l-6.581-2.83a1.4,1.4,0,0,0-1.643.44l-6.329,7.69A22.276,22.276,0,0,0,48.3,15.395a22.4,22.4,0,0,0-21.135,19.5L22.332,33.3a1.491,1.491,0,0,0-1.652.62l-8.5,13.75L2.9,40.81V7.43A4.416,4.416,0,0,1,7.2,3ZM2.9,44.49,11.722,51a1.24,1.24,0,0,0,.841.31h.271a1.477,1.477,0,0,0,.966-.66l8.755-14.06L26.912,38v.31A23.176,23.176,0,0,0,37.6,57.847a21.577,21.577,0,0,0,21.682.8l7.673,7.92H2.9ZM61.768,57A22.245,22.245,0,0,0,67.1,51.48L78.959,63.72a3.075,3.075,0,0,1,0,4.2L77.7,69.25a2.83,2.83,0,0,1-4.078,0ZM49.032,58.19c-10.644.011-19.281-8.911-19.288-19.927s8.618-19.95,19.262-19.953,19.275,8.925,19.275,19.94c-.032,10.991-8.628,19.9-19.249,19.94ZM60.164,91.53a5.169,5.169,0,0,1,4.89,3.81h-35.1a5.207,5.207,0,0,1,4.9-3.81Zm-20.39-3V80.66H55.235v7.91ZM92.14,73.18a4.428,4.428,0,0,1-4.31,4.51H7.2a4.429,4.429,0,0,1-4.3-4.51V69.47h66.88L71.6,71.32a5.559,5.559,0,0,0,8.136,0L80.988,70a3.835,3.835,0,0,0,.454-.57h10.7Zm-9.528-6.67a6.036,6.036,0,0,0-1.623-4.91L68.609,48.82a23.285,23.285,0,0,0,2.522-10.57c0-.31,0-.57,0-.89L78.5,28.44l6.706,2.83a1.441,1.441,0,0,0,1.759-.54l5.189-8.09V66.51Z" transform="translate(0 0)" fill="#cd1b2b"/>
    <path id="Path_74" data-name="Path 74" d="M50.76,29.54a3.86,3.86,0,0,1,4.11,3.58,1.5,1.5,0,0,0,3,0,6.71,6.71,0,0,0-5.62-6.41V25.25a1.5,1.5,0,1,0-3,0v1.46a6.71,6.71,0,0,0-5.62,6.41c0,3.18,1.86,6.59,7.1,6.59,2.72,0,4.11,1.19,4.11,3.58a4.14,4.14,0,0,1-8.22,0,1.5,1.5,0,0,0-3,0,6.77,6.77,0,0,0,5.62,6.46v1.46a1.5,1.5,0,0,0,3,0V49.75a6.77,6.77,0,0,0,5.62-6.46c0-3.18-1.86-6.54-7.1-6.54-2.72,0-4.11-1.24-4.11-3.63a3.87,3.87,0,0,1,4.11-3.58Z" transform="translate(-1.718 0)" fill="#cd1b2b"/>
  </g>
</svg>
