<svg id="Layer_2" data-name="Layer 2" xmlns="http://www.w3.org/2000/svg" width="100" height="100" viewBox="0 0 100 100">
  <g id="Layer_1" data-name="Layer 1" transform="translate(0)">
    <path id="Path_59" data-name="Path 59" d="M28.41,60.85l3.275,1.58a2.3,2.3,0,0,1,.24.09v21a.259.259,0,0,0-.24.1L28.41,85.19a1.673,1.673,0,0,0-.878.968,1.508,1.508,0,0,0,.136,1.252,1.784,1.784,0,0,0,1.6.89,1.636,1.636,0,0,0,.841-.21l1.768-.88v2a5.49,5.49,0,0,0,1.84,4.045,6.549,6.549,0,0,0,4.425,1.665H76.354A6.569,6.569,0,0,0,80.8,93.235a5.5,5.5,0,0,0,1.831-4.075v-2l1.768.88a1.589,1.589,0,0,0,.841.21,1.777,1.777,0,0,0,1.74-1.258,1.6,1.6,0,0,0-.911-1.852l-3.275-1.57a.21.21,0,0,1-.218-.1v-21c.055-.05.142-.05.218-.09l3.275-1.58a1.68,1.68,0,0,0,.882-.99,1.519,1.519,0,0,0-.162-1.27,1.766,1.766,0,0,0-1.095-.733A1.908,1.908,0,0,0,84.355,58l-2.522,1.23a6.371,6.371,0,0,0-5.458-3.1H74.193V46.67C73.96,38.277,66.465,31.583,57.3,31.583S40.64,38.277,40.407,46.67v9.41H38.224a6.337,6.337,0,0,0-5.458,3.1L30.113,58a1.924,1.924,0,0,0-1.369-.151,1.758,1.758,0,0,0-1.076.791,1.6,1.6,0,0,0,.742,2.21ZM43.955,46.67c0-6.716,5.943-12.16,13.274-12.16S70.5,39.954,70.5,46.67v9.41H43.955ZM35.506,61.83a2.55,2.55,0,0,1,2.642-2.41H76.354A2.539,2.539,0,0,1,79,61.83V89.16a2.313,2.313,0,0,1-.774,1.708,2.759,2.759,0,0,1-1.867.7H38.147a2.539,2.539,0,0,1-2.642-2.41Z" transform="translate(-7.237 -9.49)" fill="#cd1b2b"/>
    <path id="Path_60" data-name="Path 60" d="M9,50.61l3,1.57a2,2,0,0,0,.79.2,1.67,1.67,0,0,0,.76-3.15L10.6,47.66a1.7,1.7,0,0,0-2.24.69A1.66,1.66,0,0,0,9,50.61Z" transform="translate(0 -4.308)" fill="#cd1b2b"/>
    <path id="Path_61" data-name="Path 61" d="M18.68,55.73l3,1.58a1.69,1.69,0,0,0,2.26-.69,1.73,1.73,0,0,0-.68-2.27l-3-1.58a1.71,1.71,0,0,0-2.24.69,1.66,1.66,0,0,0,.66,2.27Z" transform="translate(-1.635 -4.772)" fill="#cd1b2b"/>
    <path id="Path_62" data-name="Path 62" d="M86.26,91.62l3,1.58a1.52,1.52,0,0,0,.77.19,1.64,1.64,0,0,0,.79-3.1l-3-1.58a1.65,1.65,0,0,0-1.55,2.91Z" transform="translate(-7.841 -9.49)" fill="#cd1b2b"/>
    <path id="Path_63" data-name="Path 63" d="M95.91,96.74l3,1.58a1.54,1.54,0,0,0,.78.2,1.61,1.61,0,0,0,1.46-.89,1.64,1.64,0,0,0-.69-2.22l-3-1.57a1.61,1.61,0,0,0-2.24.69A1.64,1.64,0,0,0,95.91,96.74Z" transform="translate(-9.47 -9.49)" fill="#cd1b2b"/>
    <path id="Path_64" data-name="Path 64" d="M21.64,88.71l-3,1.58A1.61,1.61,0,0,0,18,92.51a1.59,1.59,0,0,0,1.48.88,1.56,1.56,0,0,0,.76-.19l3-1.58a1.66,1.66,0,0,0-1.58-2.91Z" transform="translate(-1.631 -9.49)" fill="#cd1b2b"/>
    <path id="Path_65" data-name="Path 65" d="M9.8,98.52a1.6,1.6,0,0,0,.79-.2l2.95-1.58A1.642,1.642,0,1,0,12,93.84L9,95.41a1.62,1.62,0,0,0-.68,2.22,1.59,1.59,0,0,0,1.48.89Z" transform="translate(0 -9.49)" fill="#cd1b2b"/>
    <path id="Path_66" data-name="Path 66" d="M96.7,52.38a1.87,1.87,0,0,0,.76-.2l3-1.57a1.68,1.68,0,0,0,.69-2.26,1.71,1.71,0,0,0-2.24-.69l-3,1.57a1.69,1.69,0,0,0-.69,2.27,1.72,1.72,0,0,0,1.48.88Z" transform="translate(-9.47 -4.308)" fill="#cd1b2b"/>
    <path id="Path_67" data-name="Path 67" d="M87.05,57.5a1.56,1.56,0,0,0,.76-.19l3-1.58a1.69,1.69,0,0,0,.69-2.27,1.74,1.74,0,0,0-2.25-.69l-3,1.58a1.71,1.71,0,0,0-.69,2.27,1.6,1.6,0,0,0,1.49.88Z" transform="translate(-7.838 -4.773)" fill="#cd1b2b"/>
    <path id="Path_68" data-name="Path 68" d="M92.427,0H7.582A7.6,7.6,0,0,0,0,7.6V92.447A7.59,7.59,0,0,0,7.582,100H92.427A7.59,7.59,0,0,0,100,92.447V7.6A7.6,7.6,0,0,0,92.427,0ZM3.033,7.6A4.567,4.567,0,0,1,7.6,3.032H92.445A4.567,4.567,0,0,1,97.013,7.6v7.6H3.033ZM96.967,92.447A4.567,4.567,0,0,1,92.4,97.013H7.582a4.567,4.567,0,0,1-4.567-4.567V18.212H96.967Z" transform="translate(0)" fill="#cd1b2b"/>
    <path id="Path_69" data-name="Path 69" d="M97.93,8.76a1.76,1.76,0,0,0-.47,1.18,1.64,1.64,0,0,0,1.65,1.68,1.51,1.51,0,0,0,1.15-.49,1.56,1.56,0,0,0,.5-1.19,1.8,1.8,0,0,0-.5-1.18,1.75,1.75,0,0,0-2.33,0Z" transform="translate(-9.47)" fill="#cd1b2b"/>
    <path id="Path_70" data-name="Path 70" d="M90,8.32a1.65,1.65,0,1,0,1.65,1.65A1.65,1.65,0,0,0,90,8.32Z" transform="translate(-10.442)" fill="#cd1b2b"/>
    <path id="Path_71" data-name="Path 71" d="M79.69,8.76a1.75,1.75,0,0,0-.5,1.18,1.53,1.53,0,0,0,.5,1.19,1.55,1.55,0,0,0,1.18.49A1.51,1.51,0,0,0,82,11.13a1.55,1.55,0,0,0,.49-1.19A1.78,1.78,0,0,0,82,8.76a1.75,1.75,0,0,0-2.31,0Z" transform="translate(-7.064)" fill="#cd1b2b"/>
    <path id="Path_72" data-name="Path 72" d="M48.45,85.07a1.62,1.62,0,0,0,.37,1.38,1.54,1.54,0,0,0,1.25.59H60a1.59,1.59,0,0,0,1.25-.59,1.73,1.73,0,0,0,.38-1.38l-1.8-9.94a6.64,6.64,0,1,0-9.63,0ZM55,67.25a3.32,3.32,0,0,1,3.33,3.35,3.22,3.22,0,0,1-1.31,2.56,1.75,1.75,0,0,0-.61,1.63l1.6,8.95h-6l1.61-8.95A1.78,1.78,0,0,0,53,73.16a3.21,3.21,0,0,1-1.3-2.56A3.31,3.31,0,0,1,55,67.25Z" transform="translate(-4.763 -7.023)" fill="#cd1b2b"/>
  </g>
</svg>
