<svg xmlns="http://www.w3.org/2000/svg" width="100" height="100" viewBox="0 0 100 100">
  <g id="Layer_2" data-name="Layer 2" transform="translate(0 0)">
    <g id="Layer_1" data-name="Layer 1" transform="translate(0 0)">
      <path id="Path_41" data-name="Path 41" d="M98.469,0H1.512A1.5,1.5,0,0,0,0,1.485v97.03A1.5,1.5,0,0,0,1.512,100H98.469A1.512,1.512,0,0,0,100,98.515V1.485A1.5,1.5,0,0,0,98.469,0ZM3.015,3.016H96.957V15.078H3.015ZM96.957,96.984H3.015V18.168H96.957Z" transform="translate(0 0)" fill="#cd1b2b"/>
      <path id="Path_42" data-name="Path 42" d="M96.43,8.63A1.59,1.59,0,0,0,96,9.79,1.82,1.82,0,0,0,96.43,11a2,2,0,0,0,1.14.43A1.9,1.9,0,0,0,98.73,11a1.83,1.83,0,0,0,.49-1.17,1.68,1.68,0,0,0-.49-1.16,1.64,1.64,0,0,0-2.3-.04Z" transform="translate(-7.8 0)" fill="#cd1b2b"/>
      <path id="Path_43" data-name="Path 43" d="M88.6,8.14a1.63,1.63,0,1,0,1.5,1.625A1.63,1.63,0,0,0,88.6,8.14Z" transform="translate(-8.765 0)" fill="#cd1b2b"/>
      <path id="Path_44" data-name="Path 44" d="M78.47,8.63A1.5,1.5,0,0,0,78,9.79,1.6,1.6,0,0,0,78.47,11a1.75,1.75,0,0,0,2.3,0,2,2,0,0,0,.49-1.17,1.68,1.68,0,0,0-.49-1.16,1.64,1.64,0,0,0-2.3-.04Z" transform="translate(-5.82 0)" fill="#cd1b2b"/>
      <path id="Path_45" data-name="Path 45" d="M13.28,34.27h2v2.48a1.61,1.61,0,0,0,1.62,1.59h8.17a1.61,1.61,0,0,0,1.62-1.59V34.27H46A1.635,1.635,0,0,0,46,31H26.69V28.56A1.59,1.59,0,0,0,25.07,27H16.9a1.59,1.59,0,0,0-1.62,1.61V31h-2a1.62,1.62,0,1,0,0,3.24Zm5.27-4.07h4.89v4.9H18.55Z" transform="translate(0 -2.175)" fill="#cd1b2b"/>
      <path id="Path_46" data-name="Path 46" d="M13.28,53.86H23.44v2.47A1.67,1.67,0,0,0,25.07,58h8.17a1.67,1.67,0,0,0,1.62-1.65V53.86H46a1.63,1.63,0,0,0,0-3.25H34.86V48.14a1.62,1.62,0,0,0-1.62-1.6H25.07a1.62,1.62,0,0,0-1.63,1.6v2.47H13.28a1.63,1.63,0,0,0,0,3.25Zm13.41-4.07h4.92v4.89H26.69Z" transform="translate(0 -3.755)" fill="#cd1b2b"/>
      <path id="Path_47" data-name="Path 47" d="M13.28,73.49h5.27v2.43a1.63,1.63,0,0,0,1.62,1.65h8.17A1.63,1.63,0,0,0,30,75.92V73.49H46a1.65,1.65,0,0,0,0-3.29H30V67.77a1.62,1.62,0,0,0-1.62-1.64H20.17a1.62,1.62,0,0,0-1.62,1.64V70.2H13.28a1.65,1.65,0,0,0,0,3.29Zm8.51-4.12h4.9v4.9h-4.9Z" transform="translate(0 -5.334)" fill="#cd1b2b"/>
      <path id="Path_48" data-name="Path 48" d="M13.28,93.08H31.61V95.5a1.63,1.63,0,0,0,1.63,1.65H41.4A1.63,1.63,0,0,0,43,95.5V93.08h3a1.63,1.63,0,0,0,1.62-1.65A1.65,1.65,0,0,0,46,89.79H43V87.36a1.66,1.66,0,0,0-1.63-1.65H33.24a1.66,1.66,0,0,0-1.63,1.65v2.43H13.28a1.66,1.66,0,0,0-1.62,1.64,1.63,1.63,0,0,0,1.62,1.65ZM34.86,89h4.92v4.9H34.86Z" transform="translate(0 -7.77)" fill="#cd1b2b"/>
      <path id="Path_49" data-name="Path 49" d="M88.07,42.22c6.1,0,10.39-7,10.57-7.32a1.65,1.65,0,0,0,0-1.69c-.18-.3-4.47-7.33-10.57-7.33a8.17,8.17,0,0,0,0,16.34Zm0-13c3.24,0,6,3.3,7.2,4.9-1.17,1.55-4,4.9-7.2,4.9a4.9,4.9,0,0,1,0-9.8Z" transform="translate(-7.8 -2.199)" fill="#cd1b2b"/>
      <path id="Path_50" data-name="Path 50" d="M88.07,35.68a1.63,1.63,0,1,0-1.65-1.6A1.63,1.63,0,0,0,88.07,35.68Z" transform="translate(-8.788 -2.41)" fill="#cd1b2b"/>
      <path id="Path_51" data-name="Path 51" d="M88.89,48a1.46,1.46,0,0,0-1.67,0c-.29.14-7.32,4.45-7.32,10.57a8.16,8.16,0,1,0,16.31,0C96.21,52.4,89.2,48.09,88.89,48Zm-.82,15.46a4.88,4.88,0,0,1-4.9-4.89c0-3.26,3.29-6,4.9-7.18,1.57,1.16,4.89,4,4.89,7.18a4.89,4.89,0,0,1-4.89,4.84Z" transform="translate(-7.8 -4.192)" fill="#cd1b2b"/>
      <path id="Path_52" data-name="Path 52" d="M88.07,56.91a1.63,1.63,0,1,0,1.153.488,1.63,1.63,0,0,0-1.153-.488Z" transform="translate(-8.787 -4.231)" fill="#cd1b2b"/>
      <path id="Path_53" data-name="Path 53" d="M67.73,48.77c-.34,0-8.56.58-11.37,6h0a8.16,8.16,0,0,0,3.47,11,8,8,0,0,0,3.75.92,8.9,8.9,0,0,0,2.48-.39,8.11,8.11,0,0,0,4.77-4c2.84-5.42-1.43-12.45-1.6-12.75a1.56,1.56,0,0,0-1.5-.78Zm.22,12a5,5,0,0,1-2.89,2.43,4.75,4.75,0,0,1-3.71-.34,4.9,4.9,0,0,1-2.11-6.6c1.51-2.9,5.72-3.83,7.69-4.12.87,1.77,2.52,5.74,1.07,8.65Z" transform="translate(-4.729 -4.217)" fill="#cd1b2b"/>
      <path id="Path_54" data-name="Path 54" d="M64.36,57.11a1.63,1.63,0,1,0,.673,2.2A1.63,1.63,0,0,0,64.36,57.11Z" transform="translate(-4.623 -4.232)" fill="#cd1b2b"/>
      <path id="Path_55" data-name="Path 55" d="M59,40.82a9.51,9.51,0,0,0,5.48,1.55,19.25,19.25,0,0,0,7.39-1.7,1.57,1.57,0,0,0,.94-1.35c0-.34.39-8.59-4.67-12A8.152,8.152,0,1,0,59,40.82Zm.51-9.5a4.86,4.86,0,0,1,4.07-2.14A4.71,4.71,0,0,1,66.3,30c2.69,1.79,3.15,6.16,3.22,8.09-1.87.68-6,1.84-8.73,0A5,5,0,0,1,58.73,35a4.94,4.94,0,0,1,.76-3.68Z" transform="translate(-4.781 -2.204)" fill="#cd1b2b"/>
      <path id="Path_56" data-name="Path 56" d="M64.89,35a1.63,1.63,0,0,0-.43-2.28,1.58,1.58,0,0,0-2.26.44A1.63,1.63,0,1,0,64.89,35Z" transform="translate(-4.619 -2.412)" fill="#cd1b2b"/>
      <path id="Path_57" data-name="Path 57" d="M63.56,74.66a7.22,7.22,0,0,0-7.2,7.22v9.7a7.19,7.19,0,1,0,14.37,0v-9.7a7.21,7.21,0,0,0-7.17-7.22Zm0,3.3a3.9,3.9,0,1,0,0,.04Zm0,17.54a3.91,3.91,0,0,1-3.93-3.92V87.89a7.18,7.18,0,0,0,3.93,1.17,7.31,7.31,0,0,0,3.93-1.17v3.69a3.92,3.92,0,0,1-3.93,3.92Z" transform="translate(-4.705 -7.77)" fill="#cd1b2b"/>
      <path id="Path_58" data-name="Path 58" d="M88.07,74.66a7.23,7.23,0,0,0-7.21,7.22v9.7a7.19,7.19,0,1,0,14.38,0v-9.7a7.21,7.21,0,0,0-7.17-7.22Zm0,3.3A3.92,3.92,0,0,1,92,81.88v3.74a6.92,6.92,0,0,0-7.85,0V81.88A3.9,3.9,0,0,1,88.07,78Zm0,17.54A3.93,3.93,0,1,1,91.8,91.575,3.93,3.93,0,0,1,88.07,95.5Z" transform="translate(-7.8 -7.77)" fill="#cd1b2b"/>
    </g>
  </g>
</svg>
