<svg id="Layer_5" enable-background="new 0 0 64 64" height="512" viewBox="0 0 64 64" width="512" xmlns="http://www.w3.org/2000/svg"><g><g><g><path d="m49 58v2c0 1.1-.9 2-2 2h-30c-1.1 0-2-.9-2-2v-2c0-1.1.9-2 2-2h5 20 5c1.1 0 2 .9 2 2z" fill="#969faa"/></g><g><path d="m42 56h-20c1.87-1.25 3-3.35 3-5.61v-.39h14v.39c0 2.26 1.13 4.36 3 5.61z" fill="#aab2bd"/></g><g><path d="m6 10h52c2.209 0 4 1.791 4 4v28h-60v-28c0-2.209 1.791-4 4-4z" fill="#69d6f4"/></g><g><path d="m62 42v4c0 2.21-1.79 4-4 4h-19-14-19c-2.21 0-4-1.79-4-4v-4h30 26z" fill="#ccd1d9"/></g><g><path d="m26 16v12c0 1.1-.9 2-2 2h-16c-1.1 0-2-.9-2-2v-12c0-1.1.9-2 2-2h16c1.1 0 2 .9 2 2z" fill="#e6e9ed"/></g><g><path d="m58 28.6v13.4h-26v-13.4c0-2.21 1.25-4.22 3.22-5.21.52-.26 1.07-.44 1.64-.53l3.18-.53.96 7.67 4-4 4 4 .96-7.67 3.18.53c.57.09 1.12.27 1.64.53.98.49 1.79 1.25 2.35 2.15s.87 1.96.87 3.06z" fill="#fcd770"/></g><g><path d="m49.96 22.33-.96 7.67-4-4 3-4z" fill="#ffc729"/></g><g><path d="m42 22 3 4-4 4-.96-7.67z" fill="#ffc729"/></g><g><path d="m54 8v.23c0 .61-.1 1.21-.29 1.77-.16.46-.37.91-.64 1.31-.31-.2-.68-.31-1.07-.31h-2v-.01h-.17c-1.81 0-3.55-.72-4.83-2-1.28 1.28-3.02 2-4.83 2h-.17v.01h-2c-.39 0-.76.11-1.07.31-.27-.4-.48-.85-.64-1.31-.19-.56-.29-1.16-.29-1.77v-.2c0-.94.24-1.85.69-2.64s1.09-1.47 1.9-1.95c1.58-.94 3.38-1.44 5.22-1.44 2.68 0 5.26 1.07 7.16 2.97l.03.03c1.66 0 3 1.34 3 3z" fill="#b27946"/></g><g><path d="m53.41 11.59c.37.36.59.86.59 1.41 0 1.1-.9 2-2 2h-2v-.01-3.99h2c.39 0 .76.11 1.07.31.12.08.24.17.34.28z" fill="#f0d0b4"/></g><g><path d="m48 18.99v3.01l-3 4-3-4v-3.01l.01-.01c.83.64 1.87 1.01 2.99 1.01s2.16-.37 2.99-1.01z" fill="#f0d0b4"/></g><g><path d="m50 11v3.99.01c0 1.63-.79 3.09-2.01 3.98-.83.64-1.87 1.01-2.99 1.01s-2.16-.37-2.99-1.01c-1.22-.89-2.01-2.35-2.01-3.98v-.01-3.99-.01h.17c1.81 0 3.55-.72 4.83-2 1.28 1.28 3.02 2 4.83 2h.17z" fill="#f0d0b4"/></g><g><path d="m40 14.99v.01h-2c-.55 0-1.05-.22-1.41-.59-.37-.36-.59-.86-.59-1.41 0-.71.37-1.33.93-1.69.31-.2.68-.31 1.07-.31h2z" fill="#f0d0b4"/></g><g><path d="m19.11 20.55c.54.28.89.84.89 1.45s-.35 1.17-.89 1.45l-4.77 2.38c-.22.11-.47.17-.72.17-.9 0-1.62-.72-1.62-1.62v-4.76c0-.9.72-1.62 1.62-1.62.25 0 .5.06.72.17z" fill="#ff826e"/></g></g><g><g><path d="m47 63h-30c-1.654 0-3-1.346-3-3v-2c0-1.654 1.346-3 3-3h30c1.654 0 3 1.346 3 3v2c0 1.654-1.346 3-3 3zm-30-6c-.551 0-1 .449-1 1v2c0 .551.449 1 1 1h30c.551 0 1-.449 1-1v-2c0-.551-.449-1-1-1z"/></g><g><path d="m22.555 56.832-1.109-1.664c1.6-1.066 2.555-2.851 2.555-4.773v-.395h2v.395c-.001 2.592-1.289 4.999-3.446 6.437z"/></g><g><path d="m41.445 56.832c-2.157-1.438-3.445-3.845-3.445-6.437v-.395h2v.395c0 1.922.955 3.707 2.555 4.773z"/></g><g><path d="m17 47h-2v-2h2zm-4 0h-2v-2h2zm-4 0h-2v-2h2z"/></g><g><path d="m58 51h-52c-2.757 0-5-2.243-5-5v-32c0-2.757 2.243-5 5-5h30.291v2h-30.291c-1.654 0-3 1.346-3 3v32c0 1.654 1.346 3 3 3h52c1.654 0 3-1.346 3-3v-32c0-1.654-1.346-3-3-3h-4.291v-2h4.291c2.757 0 5 2.243 5 5v32c0 2.757-2.243 5-5 5z"/></g><g><path d="m2 41h60v2h-60z"/></g><g><path d="m13.618 27c-1.444 0-2.618-1.174-2.618-2.618v-4.764c0-1.444 1.174-2.618 2.618-2.618.404 0 .809.096 1.171.276l4.764 2.382c.892.446 1.447 1.343 1.447 2.342s-.555 1.896-1.448 2.342l-4.763 2.382c-.362.18-.767.276-1.171.276zm0-8c-.341 0-.618.277-.618.618v4.764c0 .436.504.749.895.553l4.764-2.382c.21-.106.341-.317.341-.553s-.131-.447-.341-.553l-4.764-2.382c-.086-.043-.182-.065-.277-.065z"/></g><g><path d="m24 31h-16c-1.654 0-3-1.346-3-3v-12c0-1.654 1.346-3 3-3h16c1.654 0 3 1.346 3 3v12c0 1.654-1.346 3-3 3zm-16-16c-.551 0-1 .449-1 1v12c0 .551.449 1 1 1h16c.551 0 1-.449 1-1v-12c0-.551-.449-1-1-1z"/></g><g><path d="m33 42h-2v-13.403c0-2.6 1.445-4.938 3.77-6.1.607-.304 1.256-.515 1.928-.627l4.302-.717v-2.161h2v3.855l-5.972.995c-.475.08-.934.229-1.363.443-1.644.823-2.665 2.475-2.665 4.312z"/></g><g><path d="m59 42h-2v-13.403c0-1.837-1.021-3.489-2.665-4.311-.43-.215-.888-.364-1.364-.444l-5.971-.995v-3.855h2v2.161l4.301.717c.672.112 1.321.324 1.929.628 2.325 1.162 3.77 3.5 3.77 6.1z"/></g><g><path d="m53.901 11.867-1.665-1.107c.5-.752.764-1.626.764-2.529v-.231c0-1.103-.897-2-2-2h-.414l-.293-.293c-1.758-1.758-4.05-2.707-6.488-2.707-1.654 0-3.278.45-4.696 1.301-1.301.781-2.109 2.208-2.109 3.725v.205c0 .902.264 1.776.763 2.527l-1.665 1.107c-.718-1.079-1.098-2.336-1.098-3.634v-.205c0-2.216 1.18-4.3 3.08-5.44 1.729-1.038 3.709-1.586 5.725-1.586 2.859 0 5.553 1.071 7.625 3.023 2.004.215 3.57 1.916 3.57 3.977v.231c0 1.298-.38 2.556-1.099 3.636z"/></g><g><path d="m52 16h-2.001v-2h2.001c.551 0 1-.449 1-1s-.449-1-1-1h-2v-2h2c1.654 0 3 1.346 3 3s-1.346 3-3 3z"/></g><g><path d="m45 20.993c-3.309 0-6-2.691-6-6v-5h1.171c1.557 0 3.021-.606 4.122-1.707l.707-.707.707.707c1.101 1.101 2.564 1.707 4.122 1.707h1.171v5c0 3.308-2.691 6-6 6zm-4-9.043v3.043c0 2.206 1.794 4 4 4s4-1.794 4-4v-3.043c-1.466-.153-2.843-.712-4-1.622-1.157.909-2.534 1.468-4 1.622z"/></g><g><path d="m40 16h-2c-1.654 0-3-1.346-3-3s1.346-3 3-3h2v2h-2c-.551 0-1 .449-1 1s.449 1 1 1h2z"/></g><g><path d="m49.739 32.153-6.059-6.059 3.52-4.694 1.6 1.2-2.48 3.306 1.941 1.941.706-5.644 1.984.248z"/></g><g><path d="m40.261 32.153-1.212-9.702 1.984-.248.706 5.644 1.941-1.941-2.48-3.306 1.6-1.2 3.52 4.694z"/></g><g><path d="m5 33h2v2h-2z"/></g><g><path d="m9 33h18v2h-18z"/></g><g><path d="m5 37h22v2h-22z"/></g></g></g></svg>